# xmcd
#
# Track frame offsets: 
#        150
#        15986
#        30015
#        46896
#        63335
#        81032
#        96119
#        114738
#        129679
#        144098
#        160287
#
# Disc length: 2328 seconds
#
# Revision: 0
# Processed by: cddbd v1.5.2PL0 Copyright (c) Steve Scherf et al.
# Submitted via: ExactAudioCopyFreeDBPlugin 1.0
#
DISCID=7c09160b
DTITLE=Ilse Delange - Ilse Delange
DYEAR=2018
DGENRE=Pop
TTITLE0=OK
TTITLE1=Heartbeat
TTITLE2=Runaway
TTITLE3=Lay Your Weapons Down
TTITLE4=Right With You
TTITLE5=Half The Love
TTITLE6=Around Again
TTITLE7=Sun and Shadow
TTITLE8=Still
TTITLE9=Violet and Blue
TTITLE10=You Are The Reason
EXTD=
EXTT0=
EXTT1=
EXTT2=
EXTT3=
EXTT4=
EXTT5=
EXTT6=
EXTT7=
EXTT8=
EXTT9=
EXTT10=
PLAYORDER=
